<svg width="74" height="33" viewBox="0 0 74 33" fill="none" xmlns="http://www.w3.org/2000/svg">
<g filter="url(#filter0_d_10_16)">
<path d="M4.36 24L13.352 1.6H18.792L27.72 24H20.872L17.288 14.208C17.0533 13.5467 16.8507 12.9813 16.68 12.512C16.5093 12.0427 16.36 11.6053 16.232 11.2C16.104 10.7733 15.976 10.3253 15.848 9.856C15.72 9.36533 15.592 8.78933 15.464 8.128H16.552C16.424 8.78933 16.296 9.36533 16.168 9.856C16.04 10.3253 15.9013 10.7733 15.752 11.2C15.624 11.6053 15.464 12.0427 15.272 12.512C15.1013 12.9813 14.8987 13.5467 14.664 14.208L11.08 24H4.36ZM8.84 20.672L10.856 15.968H21.256L23.08 20.672H8.84ZM42.2288 24L51.2208 1.6H56.6608L65.5888 24H58.7408L55.1568 14.208C54.9221 13.5467 54.7194 12.9813 54.5488 12.512C54.3781 12.0427 54.2288 11.6053 54.1008 11.2C53.9728 10.7733 53.8448 10.3253 53.7168 9.856C53.5888 9.36533 53.4608 8.78933 53.3328 8.128H54.4208C54.2928 8.78933 54.1648 9.36533 54.0368 9.856C53.9088 10.3253 53.7701 10.7733 53.6208 11.2C53.4928 11.6053 53.3328 12.0427 53.1408 12.512C52.9701 12.9813 52.7674 13.5467 52.5328 14.208L48.9488 24H42.2288ZM46.7088 20.672L48.7248 15.968H59.1248L60.9488 20.672H46.7088Z" fill="black"/>
<path d="M38.1978 24V1.6H45.1098V24H38.1978ZM24.8538 24V1.6H31.7658V24H24.8538ZM27.4458 15.84L27.4778 9.824H42.1018V15.84H27.4458Z" fill="#238FFB"/>
<path d="M63.9065 15.488C63.7145 14.2293 63.5118 12.928 63.2985 11.584C63.0852 10.24 62.9038 8.90667 62.7545 7.584C62.6265 6.24 62.5625 4.93867 62.5625 3.68V0.959999H69.4105V3.68C69.4105 4.93867 69.3358 6.24 69.1865 7.584C69.0585 8.90667 68.8878 10.24 68.6745 11.584C68.4612 12.928 68.2585 14.2293 68.0665 15.488H63.9065ZM66.0185 24.352C65.0158 24.352 64.2372 24.0747 63.6825 23.52C63.1278 22.9653 62.8505 22.176 62.8505 21.152C62.8505 20.2133 63.1385 19.4453 63.7145 18.848C64.3118 18.2507 65.0798 17.952 66.0185 17.952C67.0212 17.952 67.7998 18.2293 68.3545 18.784C68.9092 19.3387 69.1865 20.128 69.1865 21.152C69.1865 22.0907 68.8878 22.8587 68.2905 23.456C67.7145 24.0533 66.9572 24.352 66.0185 24.352Z" fill="white"/>
</g>
<defs>
<filter id="filter0_d_10_16" x="0.359985" y="0.959991" width="73.0505" height="31.392" filterUnits="userSpaceOnUse" color-interpolation-filters="sRGB">
<feFlood flood-opacity="0" result="BackgroundImageFix"/>
<feColorMatrix in="SourceAlpha" type="matrix" values="0 0 0 0 0 0 0 0 0 0 0 0 0 0 0 0 0 0 127 0" result="hardAlpha"/>
<feOffset dy="4"/>
<feGaussianBlur stdDeviation="2"/>
<feComposite in2="hardAlpha" operator="out"/>
<feColorMatrix type="matrix" values="0 0 0 0 0 0 0 0 0 0 0 0 0 0 0 0 0 0 0.25 0"/>
<feBlend mode="normal" in2="BackgroundImageFix" result="effect1_dropShadow_10_16"/>
<feBlend mode="normal" in="SourceGraphic" in2="effect1_dropShadow_10_16" result="shape"/>
</filter>
</defs>
</svg>
