<svg width="66" height="25" viewBox="0 0 66 25" fill="none" xmlns="http://www.w3.org/2000/svg">
<path d="M0.36 24L9.352 1.6H14.792L23.72 24H16.872L13.288 14.208C13.0533 13.5467 12.8507 12.9813 12.68 12.512C12.5093 12.0427 12.36 11.6053 12.232 11.2C12.104 10.7733 11.976 10.3253 11.848 9.856C11.72 9.36533 11.592 8.78933 11.464 8.128H12.552C12.424 8.78933 12.296 9.36533 12.168 9.856C12.04 10.3253 11.9013 10.7733 11.752 11.2C11.624 11.6053 11.464 12.0427 11.272 12.512C11.1013 12.9813 10.8987 13.5467 10.664 14.208L7.08 24H0.36ZM4.84 20.672L6.856 15.968H17.256L19.08 20.672H4.84ZM38.2288 24L47.2208 1.6H52.6608L61.5888 24H54.7408L51.1568 14.208C50.9221 13.5467 50.7194 12.9813 50.5488 12.512C50.3781 12.0427 50.2288 11.6053 50.1008 11.2C49.9728 10.7733 49.8448 10.3253 49.7168 9.856C49.5888 9.36533 49.4608 8.78933 49.3328 8.128H50.4208C50.2928 8.78933 50.1648 9.36533 50.0368 9.856C49.9088 10.3253 49.7701 10.7733 49.6208 11.2C49.4928 11.6053 49.3328 12.0427 49.1408 12.512C48.9701 12.9813 48.7674 13.5467 48.5328 14.208L44.9488 24H38.2288ZM42.7088 20.672L44.7248 15.968H55.1248L56.9488 20.672H42.7088Z" fill="black"/>
<path d="M34.1978 24V1.6H41.1098V24H34.1978ZM20.8538 24V1.6H27.7658V24H20.8538ZM23.4458 15.84L23.4778 9.824H38.1018V15.84H23.4458ZM59.9065 15.488C59.7145 14.2293 59.5118 12.928 59.2985 11.584C59.0852 10.24 58.9038 8.90667 58.7545 7.584C58.6265 6.24 58.5625 4.93867 58.5625 3.68V0.959999H65.4105V3.68C65.4105 4.93867 65.3358 6.24 65.1865 7.584C65.0585 8.90667 64.8878 10.24 64.6745 11.584C64.4612 12.928 64.2585 14.2293 64.0665 15.488H59.9065ZM62.0185 24.352C61.0158 24.352 60.2372 24.0747 59.6825 23.52C59.1278 22.9653 58.8505 22.176 58.8505 21.152C58.8505 20.2133 59.1385 19.4453 59.7145 18.848C60.3118 18.2507 61.0798 17.952 62.0185 17.952C63.0212 17.952 63.7998 18.2293 64.3545 18.784C64.9092 19.3387 65.1865 20.128 65.1865 21.152C65.1865 22.0907 64.8878 22.8587 64.2905 23.456C63.7145 24.0533 62.9572 24.352 62.0185 24.352Z" fill="white"/>
</svg>
